Coordinates
version=1
nRows=8
nColumns=40
inDegrees=yes

Units are S.I. units (second, meters, Newtons, ...)
Angles are in degrees.

endheader
time	pelvis_tilt	pelvis_list	pelvis_rotation	pelvis_tx	pelvis_ty	pelvis_tz	hip_flexion_r	hip_adduction_r	hip_rotation_r	knee_angle_r	knee_angle_r_beta	ankle_angle_r	subtalar_angle_r	mtp_angle_r	hip_flexion_l	hip_adduction_l	hip_rotation_l	knee_angle_l	knee_angle_l_beta	ankle_angle_l	subtalar_angle_l	mtp_angle_l	lumbar_extension	lumbar_bending	lumbar_rotation	arm_flex_r	arm_add_r	arm_rot_r	elbow_flex_r	pro_sup_r	wrist_flex_r	wrist_dev_r	arm_flex_l	arm_add_l	arm_rot_l	elbow_flex_l	pro_sup_l	wrist_flex_l	wrist_dev_l
      1.33000000	     -1.58645894	     -1.15206068	      3.89986702	     -0.00046952	      0.89185936	      1.03514081	     24.69014372	     -2.96145828	    -10.86624587	    -56.90799337	     -0.99323186	      3.96554481	    -16.22106649	     16.07238409	     12.04795162	     -0.11893823	      3.98082252	    -30.40900817	     -0.53073731	     13.88536444	      9.61481831	      1.12139482	     -4.26816542	     -0.15706288	     -6.98515955	     -4.33414030	     -7.40304650	    -18.94682290	     25.89655774	     89.95437384	      0.00000000	      0.00000000	      0.49401433	     11.25854030	     24.28777421	     33.82147173	     89.95437384	      0.00000000	      0.00000000
      1.34000000	     -1.83790583	     -1.16255847	      3.93853413	      0.00613912	      0.89146799	      1.03474712	     25.59974407	     -2.96644160	    -11.01856957	    -55.13697823	     -0.96232181	      4.42061718	    -16.18465925	     16.10923908	     11.68517159	     -0.11916458	      4.02637674	    -30.11819413	     -0.52566165	     14.09528090	      9.46802240	      0.95315685	     -4.05583918	     -0.14676114	     -7.16976461	     -4.40396709	     -7.37037193	    -18.98140690	     25.90159231	     89.95437384	      0.00000000	      0.00000000	      0.68518735	     11.39404955	     24.28679155	     34.24961046	     89.95437384	      0.00000000	      0.00000000
      1.35000000	     -2.11358052	     -1.03635547	      3.97707215	      0.01269525	      0.89096268	      1.03424578	     26.46617931	     -3.20013195	    -11.18902448	    -53.24890966	     -0.92936880	      4.69658526	    -15.93907983	     15.99445314	     11.42527833	     -0.24255387	      4.24735400	    -29.98519829	     -0.52334044	     14.21497879	      9.30244515	      0.85947062	     -3.83644698	     -0.26993431	     -7.32623730	     -4.53916326	     -7.33966113	    -18.97388705	     26.01971671	     89.95437384	      0.00000000	      0.00000000	      0.86956560	     11.52883543	     24.27077668	     34.72872345	     89.95437384	      0.00000000	      0.00000000
      1.36000000	     -1.99676305	     -1.30810097	      4.12594098	      0.01940018	      0.89116771	      1.03401901	     26.68006462	     -2.83743558	    -11.39810288	    -50.93231956	     -0.88893667	      4.93394888	    -16.08170749	     16.33023790	     10.64730345	      0.04619345	      3.97637099	    -29.65689198	     -0.51761041	     14.58799502	      9.22806099	      0.58747721	     -4.05859514	      0.05237945	     -7.59667899	     -4.41930096	     -7.29441402	    -19.18928374	     25.84298387	     89.95437384	      0.00000000	      0.00000000	      1.05943392	     11.60474319	     24.38536189	     35.31183729	     89.95437384	      0.00000000	      0.00000000
      1.37000000	     -1.95861661	     -1.37832175	      4.26925457	      0.02604833	      0.89115077	      1.03368468	     26.95126791	     -2.82186978	    -11.71743115	    -48.57351647	     -0.84776779	      5.04997291	    -16.01919399	     16.76003862	     10.02241884	      0.18427888	      4.09112912	    -29.42595739	     -0.51357984	     14.67394952	      9.00662157	      0.20645805	     -4.20958987	      0.17656960	     -7.87412664	     -4.40114136	     -7.24353765	    -19.36367117	     25.87704950	     89.95437384	      0.00000000	      0.00000000	      1.24219653	     11.72161981	     24.39790329	     35.82904405	     89.95437384	      0.00000000	      0.00000000
      1.38000000	     -2.33396517	     -1.14157742	      4.27099137	      0.03249382	      0.89030012	      1.03334019	     27.81521443	     -3.23291640	    -11.94677319	    -46.51181987	     -0.81178440	      5.28462113	    -15.69308505	     16.62168312	      9.90414844	     -0.07322477	      4.29790992	    -29.35152758	     -0.51228080	     14.75958784	      8.80384062	      0.11827002	     -3.91247071	     -0.08041837	     -7.92602175	     -4.57040520	     -7.22991921	    -19.32326545	     26.00537339	     89.95437384	      0.00000000	      0.00000000	      1.45450744	     11.83835987	     24.31335943	     36.30357464	     89.95437384	      0.00000000	      0.00000000
      1.39000000	     -2.42216920	     -1.35909296	      4.44711769	      0.03895837	      0.89000373	      1.03318233	     28.10107538	     -2.98525748	    -12.12734751	    -43.89854549	     -0.76617416	      5.24050472	    -15.42954914	     16.78759692	      9.46014829	      0.13051416	      3.87256002	    -29.19144482	     -0.50948683	     15.06228815	      8.74326358	     -0.12775082	     -3.92795943	      0.19275988	     -8.22535696	     -4.46388577	     -7.18211934	    -19.58341785	     25.88299593	     89.95437384	      0.00000000	      0.00000000	      1.59363992	     11.94874245	     24.25138585	     36.86373302	     89.95437384	      0.00000000	      0.00000000
      1.40000000	     -2.72742912	     -1.17066648	      4.55405735	      0.04546108	      0.88915009	      1.03287285	     28.72404797	     -3.32881419	    -12.41006600	    -41.60776021	     -0.72619241	      5.30072592	    -15.02617324	     16.72035527	      9.28306121	     -0.04727738	      4.06173879	    -29.12034278	     -0.50824586	     15.16612690	      8.61809984	     -0.23825037	     -3.69715381	      0.00658769	     -8.42799886	     -4.57145255	     -7.14297292	    -19.64361712	     26.02408206	     89.95437384	      0.00000000	      0.00000000	      1.73488522	     12.08645100	     24.17777875	     37.33915824	     89.95437384	      0.00000000	      0.00000000
